<svg width="11" height="11" viewBox="0 0 11 11" fill="none" xmlns="http://www.w3.org/2000/svg">
<path d="M4.96197 1.27602C5.11165 0.815369 5.76335 0.81537 5.91303 1.27603L6.72846 3.78565C6.79539 3.99166 6.98737 4.13114 7.20398 4.13114H9.84276C10.3271 4.13114 10.5285 4.75095 10.1367 5.03565L8.00184 6.58669C7.82659 6.71401 7.75327 6.93969 7.8202 7.1457L8.63563 9.65533C8.78531 10.116 8.25807 10.499 7.86621 10.2143L5.73139 8.66331C5.55615 8.53599 5.31885 8.53599 5.14361 8.66331L3.00879 10.2143C2.61693 10.499 2.08969 10.116 2.23937 9.65533L3.0548 7.1457C3.12173 6.93969 3.04841 6.71401 2.87316 6.58669L0.738345 5.03565C0.346488 4.75095 0.547877 4.13114 1.03224 4.13114H3.67102C3.88763 4.13114 4.07961 3.99166 4.14654 3.78565L4.96197 1.27602Z" fill="#FAFAFA"/>
</svg>
