<svg width="39" height="38" viewBox="0 0 39 38" fill="none" xmlns="http://www.w3.org/2000/svg">
<path d="M9.86422 18.9525C9.86422 24.2952 14.2063 28.6263 19.5625 28.6263C24.9187 28.6263 29.2608 24.2952 29.2608 18.9525C29.2608 13.6099 24.9187 9.27881 19.5625 9.27881C14.2063 9.27881 9.86422 13.6099 9.86422 18.9525Z" fill="#FAFAFA"/>
<path d="M19.5625 0.25L16.3297 6.69915C18.3879 5.78675 20.7371 5.78675 22.7953 6.69915L19.5625 0.25Z" fill="#FAFAFA"/>
<path d="M33.5323 5.10978L26.6745 7.3899C28.7766 8.19635 30.4378 9.85334 31.2464 11.9501L33.5323 5.10978Z" fill="#FAFAFA"/>
<path d="M38.3125 18.9525L31.847 15.728C32.7617 17.7809 32.7617 20.1242 31.847 22.1771L38.3125 18.9525Z" fill="#FAFAFA"/>
<path d="M5.59274 5.10978L12.4505 7.3899C10.3484 8.19635 8.68715 9.85334 7.87865 11.9501L5.59274 5.10978Z" fill="#FAFAFA"/>
<path d="M19.5625 37.75L16.3297 31.3009C18.3879 32.2133 20.7371 32.2133 22.7953 31.3009L19.5625 37.75Z" fill="#FAFAFA"/>
<path d="M33.5323 31.5971L26.6745 29.317C28.7766 28.5105 30.4378 26.8536 31.2464 24.7568L33.5323 31.5971Z" fill="#FAFAFA"/>
<path d="M5.59274 31.5971L12.4505 29.317C10.3484 28.5105 8.68715 26.8536 7.87865 24.7568L5.59274 31.5971Z" fill="#FAFAFA"/>
<path d="M0.8125 18.9525L7.27802 15.728C6.3633 17.7809 6.3633 20.1242 7.27802 22.1771L0.8125 18.9525Z" fill="#FAFAFA"/>
</svg>
