<svg width="8" height="7" viewBox="0 0 8 7" fill="none" xmlns="http://www.w3.org/2000/svg">
<path d="M3.52447 0.588524C3.67415 0.127869 4.32585 0.12787 4.47553 0.588526L4.94015 2.01849C5.00709 2.2245 5.19907 2.36398 5.41568 2.36398H6.91924C7.4036 2.36398 7.60499 2.98379 7.21313 3.26849L5.99673 4.15226C5.82148 4.27958 5.74815 4.50526 5.81509 4.71128L6.27972 6.14124C6.42939 6.6019 5.90215 6.98496 5.51029 6.70026L4.29389 5.81649C4.11865 5.68917 3.88135 5.68917 3.70611 5.81649L2.4897 6.70026C2.09785 6.98496 1.57061 6.6019 1.72028 6.14124L2.18491 4.71128C2.25185 4.50526 2.17852 4.27958 2.00327 4.15226L0.786871 3.26849C0.395014 2.98379 0.596403 2.36398 1.08076 2.36398H2.58432C2.80093 2.36398 2.99291 2.2245 3.05985 2.01849L3.52447 0.588524Z" fill="#FAFAFA"/>
</svg>
