<svg width="75" height="75" viewBox="0 0 75 75" fill="none" xmlns="http://www.w3.org/2000/svg">
<path d="M37.5 6.25C20.2344 6.25 6.25 20.2344 6.25 37.5C6.24646 44.0602 8.3088 50.455 12.1444 55.7771C15.9801 61.0992 21.3942 65.0783 27.6188 67.15C29.1813 67.4219 29.7656 66.4844 29.7656 65.6625C29.7656 64.9219 29.725 62.4625 29.725 59.8437C21.875 61.2906 19.8438 57.9313 19.2188 56.1719C18.8656 55.2719 17.3438 52.5 16.0156 51.7563C14.9219 51.1719 13.3594 49.725 15.975 49.6875C18.4375 49.6469 20.1938 51.9531 20.7813 52.8906C23.5938 57.6156 28.0875 56.2875 29.8813 55.4688C30.1563 53.4375 30.975 52.0719 31.875 51.2906C24.9219 50.5094 17.6563 47.8125 17.6563 35.8594C17.6563 32.4594 18.8656 29.65 20.8594 27.4594C20.5469 26.6781 19.4531 23.475 21.1719 19.1781C21.1719 19.1781 23.7875 18.3594 29.7656 22.3844C32.3096 21.6783 34.938 21.3229 37.5781 21.3281C40.2344 21.3281 42.8906 21.6781 45.3906 22.3813C51.3656 18.3188 53.9844 19.1813 53.9844 19.1813C55.7031 23.4781 54.6094 26.6813 54.2969 27.4625C56.2875 29.65 57.5 32.4219 57.5 35.8594C57.5 47.8531 50.1969 50.5094 43.2438 51.2906C44.375 52.2656 45.3531 54.1406 45.3531 57.0719C45.3531 61.25 45.3125 64.6094 45.3125 65.6656C45.3125 66.4844 45.9 67.4594 47.4625 67.1469C53.6657 65.0525 59.056 61.0656 62.8747 55.7473C66.6934 50.4291 68.7482 44.0472 68.75 37.5C68.75 20.2344 54.7656 6.25 37.5 6.25Z" fill="#5A50FF"/>
</svg>
